<svg width="96" height="96" viewBox="0 0 96 96" fill="none" xmlns="http://www.w3.org/2000/svg">
<g clip-path="url(#clip0)">
<path d="M95.9998 0.000976562H85.8945V24.422H95.9998V0.000976562Z" fill="#0078D4"/>
<path d="M95.9992 0.000976562H71.5781V10.1062H95.9992V0.000976562Z" fill="#0078D4"/>
<path d="M28.6467 24.4229L38.752 24.4229L38.752 0.00179863L28.6467 0.00179863L28.6467 24.4229Z" fill="#0078D4"/>
<path d="M28.6473 10.1055L53.0684 10.1055L53.0684 0.00020504L28.6473 0.000205041L28.6473 10.1055Z" fill="#0078D4"/>
<path d="M95.9998 42.897H85.8945V67.318H95.9998V42.897Z" fill="#0078D4"/>
<path d="M95.9992 57.2148H71.5781V67.3201H95.9992V57.2148Z" fill="#0078D4"/>
<path d="M28.6467 67.3086L38.752 67.3086L38.752 42.8875L28.6467 42.8875L28.6467 67.3086Z" fill="#0078D4"/>
<path d="M28.6473 67.3086L53.0684 67.3086L53.0684 57.2033L28.6473 57.2033L28.6473 67.3086Z" fill="#0078D4"/>
<path d="M47.9999 38.7366C45.2041 38.7366 42.9473 36.4798 42.9473 33.684C42.9473 30.8882 45.2041 28.6313 47.9999 28.6313C50.7957 28.6313 53.0525 30.8882 53.0525 33.684C53.0525 36.4798 50.7957 38.7366 47.9999 38.7366Z" fill="#50E6FF"/>
<path d="M62.3163 24.4241C59.5205 24.4241 57.2637 22.1673 57.2637 19.3715C57.2637 16.5757 59.5205 14.3188 62.3163 14.3188C65.1121 14.3188 67.3689 16.5757 67.3689 19.3715C67.3689 22.1673 65.1121 24.4241 62.3163 24.4241Z" fill="#50E6FF"/>
<path d="M76.6308 38.7366C73.835 38.7366 71.5781 36.4798 71.5781 33.684C71.5781 30.8882 73.835 28.6313 76.6308 28.6313C79.4265 28.6313 81.6834 30.8882 81.6834 33.684C81.6834 36.4798 79.4265 38.7366 76.6308 38.7366Z" fill="#50E6FF"/>
<path d="M62.3163 53.0545C59.5205 53.0545 57.2637 50.7976 57.2637 48.0019C57.2637 45.2061 59.5205 42.9492 62.3163 42.9492C65.1121 42.9492 67.3689 45.2061 67.3689 48.0019C67.3689 50.7976 65.1121 53.0545 62.3163 53.0545Z" fill="#50E6FF"/>
<path d="M62.3163 38.7366C59.5205 38.7366 57.2637 36.4798 57.2637 33.684C57.2637 30.8882 59.5205 28.6313 62.3163 28.6313C65.1121 28.6313 67.3689 30.8882 67.3689 33.684C67.3689 36.4798 65.1121 38.7366 62.3163 38.7366Z" fill="#50E6FF"/>
<path d="M5.05263 10.1062C2.25684 10.1062 0 7.8494 0 5.05361C0 2.25782 2.25684 0.000976562 5.05263 0.000976562C7.84842 0.000976562 10.1053 2.25782 10.1053 5.05361C10.1053 7.8494 7.84842 10.1062 5.05263 10.1062Z" fill="#50E6FF"/>
<path d="M24.4217 0.000976562H14.3164V10.1062H24.4217V0.000976562Z" fill="#50E6FF"/>
<path d="M10.1053 14.3188H0V24.4241H10.1053V14.3188Z" fill="#50E6FF"/>
<path d="M24.4217 14.3188H14.3164V24.4241H24.4217V14.3188Z" fill="#50E6FF"/>
<path d="M10.1053 28.6313H0V38.7366H10.1053V28.6313Z" fill="#50E6FF"/>
<path d="M19.369 38.7366C16.5732 38.7366 14.3164 36.4798 14.3164 33.684C14.3164 30.8882 16.5732 28.6313 19.369 28.6313C22.1648 28.6313 24.4217 30.8882 24.4217 33.684C24.4217 36.4798 22.1648 38.7366 19.369 38.7366Z" fill="#50E6FF"/>
<path d="M10.1053 57.2666H0V67.3719H10.1053V57.2666Z" fill="#50E6FF"/>
<path d="M24.4217 71.5791H14.3164V81.6844H24.4217V71.5791Z" fill="#50E6FF"/>
<path d="M90.9472 96.0022C88.1514 96.0022 85.8945 93.7454 85.8945 90.9496C85.8945 88.1538 88.1514 85.897 90.9472 85.897C93.7429 85.897 95.9998 88.1538 95.9998 90.9496C95.9998 93.7454 93.7429 96.0022 90.9472 96.0022Z" fill="#50E6FF"/>
<path d="M67.3689 85.897H57.2637V96.0022H67.3689V85.897Z" fill="#50E6FF"/>
<path d="M81.6834 71.5791H71.5781V81.6844H81.6834V71.5791Z" fill="#50E6FF"/>
<path d="M33.6835 96.0022C30.8877 96.0022 28.6309 93.7454 28.6309 90.9496C28.6309 88.1538 30.8877 85.897 33.6835 85.897C36.4793 85.897 38.7361 88.1538 38.7361 90.9496C38.7361 93.7454 36.4793 96.0022 33.6835 96.0022Z" fill="#50E6FF"/>
<path d="M24.4217 85.897H14.3164V96.0022H24.4217V85.897Z" fill="#50E6FF"/>
<path d="M53.0525 71.5791H42.9473V81.6844H53.0525V71.5791Z" fill="#50E6FF"/>
</g>
<defs>
<clipPath id="clip0">
<rect width="96" height="96" fill="white"/>
</clipPath>
</defs>
</svg>
