<?xml version="1.0" encoding="utf-8"?>
<!-- Generator: Adobe Illustrator 22.1.0, SVG Export Plug-In . SVG Version: 6.00 Build 0)  -->
<svg version="1.1" id="Layer_1" xmlns="http://www.w3.org/2000/svg" xmlns:xlink="http://www.w3.org/1999/xlink" x="0px" y="0px"
	 viewBox="0 0 87.2 91" style="enable-background:new 0 0 87.2 91;" xml:space="preserve">
<style type="text/css">
	.st0{fill:#575672;}
	.st1{fill:#0078D7;}
</style>
<g>
	<g>
		<g>
			<path class="st0" d="M-198.8,47.7c-0.1,0-0.2,0-0.3-0.1l-2.1-2l-1.4,1.7c-0.1,0.1-0.3,0.2-0.4,0.1c-0.1,0-0.3-0.1-0.3-0.3l-3-9
				c0-0.1,0-0.3,0.1-0.4c0.1-0.1,0.3-0.2,0.4-0.1l9.2,2.3c0.1,0,0.3,0.2,0.3,0.3c0,0.1,0,0.3-0.1,0.4l-1.6,1.5l2.1,2
				c0.2,0.2,0.2,0.4,0,0.6l-2.6,2.8C-198.5,47.7-198.6,47.7-198.8,47.7C-198.8,47.7-198.8,47.7-198.8,47.7z M-201.2,44.6
				c0.1,0,0.2,0,0.3,0.1l2.1,2l2-2.2l-2.1-2c-0.1-0.1-0.1-0.2-0.1-0.3c0-0.1,0-0.2,0.1-0.3l1.4-1.3l-7.7-2l2.5,7.5l1.2-1.4
				C-201.5,44.7-201.4,44.6-201.2,44.6C-201.2,44.6-201.2,44.6-201.2,44.6z"/>
		</g>
		<g>
			<g>
				<path class="st0" d="M-212.5,42.2c-1.1,0-2.2-0.4-3-1.2c-1.7-1.7-1.7-4.4,0-6c0.8-0.8,1.9-1.2,3-1.2c1.1,0,2.2,0.4,3,1.2
					c0.8,0.8,1.2,1.9,1.2,3c0,1.1-0.4,2.2-1.2,3C-210.3,41.8-211.4,42.2-212.5,42.2z M-212.5,34.6c-0.9,0-1.8,0.4-2.4,1
					c-1.3,1.3-1.3,3.5,0,4.8c0.6,0.6,1.5,1,2.4,1c0.9,0,1.8-0.4,2.4-1c0.6-0.6,1-1.5,1-2.4c0-0.9-0.4-1.8-1-2.4
					C-210.7,34.9-211.6,34.6-212.5,34.6z"/>
			</g>
		</g>
		<g>
			<path class="st0" d="M-206.9,43.7h-5.7c-3.2,0-5.8-2.6-5.8-5.8c0-1.5,0.6-3,1.7-4.1c1.1-1.1,2.5-1.7,4.1-1.7h10.4
				c3.2,0,5.8,2.6,5.8,5.8c0,0.8-0.2,1.6-0.5,2.4c-0.1,0.2-0.3,0.3-0.6,0.2c-0.2-0.1-0.3-0.3-0.2-0.6c0.3-0.6,0.4-1.3,0.4-2
				c0-2.7-2.2-4.9-4.9-4.9h-10.4c-1.3,0-2.6,0.5-3.5,1.4c-0.9,0.9-1.4,2.2-1.4,3.5c0,2.7,2.2,4.9,4.9,4.9h5.7c0.2,0,0.4,0.2,0.4,0.4
				C-206.5,43.6-206.7,43.7-206.9,43.7z"/>
		</g>
		<g>
			<path class="st0" d="M-204.1,45.4h-8c-0.2,0-0.4-0.2-0.4-0.4s0.2-0.4,0.4-0.4h8c0.2,0,0.4,0.2,0.4,0.4S-203.9,45.4-204.1,45.4z"
				/>
		</g>
		<g>
			<g>
				<g id="lock_41_">
					<g>
						<path class="st0" d="M-211.4,40.3h-2.3c-0.4,0-0.7-0.3-0.7-0.7v-1.8c0-0.4,0.3-0.7,0.7-0.7h2.3c0.4,0,0.7,0.3,0.7,0.7v1.8
							C-210.7,40-211,40.3-211.4,40.3z M-213.5,39.5h2V38h-2V39.5z"/>
					</g>
					<g>
						<path class="st0" d="M-211.5,38c-0.2,0-0.4-0.2-0.4-0.4v-0.7c0-0.3-0.3-0.6-0.6-0.6c-0.3,0-0.6,0.3-0.6,0.6v0.7
							c0,0.2-0.2,0.4-0.4,0.4s-0.4-0.2-0.4-0.4v-0.7c0-0.8,0.7-1.5,1.5-1.5c0.8,0,1.5,0.7,1.5,1.5v0.7
							C-211.1,37.8-211.2,38-211.5,38z"/>
					</g>
				</g>
			</g>
		</g>
	</g>
</g>
<g>
	<g>
		<g>
			<g>
				<path class="st0" d="M-238.7,39.1c-0.2,0-0.4-0.2-0.4-0.4c0-0.4,0-0.9-0.1-1.3c0-0.2-0.1-0.3-0.1-0.5c0-0.2-0.1-0.3-0.1-0.4
					c-0.7-2.6-2.8-4.6-5.4-5.4c-0.2-0.1-0.3-0.3-0.3-0.5c0.1-0.2,0.3-0.3,0.5-0.3c2.9,0.9,5.1,3.1,5.9,6c0,0.2,0.1,0.3,0.1,0.5
					c0,0.2,0.1,0.4,0.1,0.6c0.1,0.5,0.1,1,0.1,1.4C-238.2,38.9-238.4,39.1-238.7,39.1z"/>
			</g>
			<g>
				<path class="st0" d="M-249.6,47.1c0,0-0.1,0-0.1,0c-2.8-0.8-5-3-5.9-5.8c-0.1-0.2-0.1-0.4-0.2-0.7c0-0.2-0.1-0.4-0.1-0.6
					c-0.1-0.5-0.1-1-0.1-1.4c0-0.2,0.2-0.4,0.4-0.4c0.2,0,0.4,0.2,0.4,0.4c0,0.4,0,0.9,0.1,1.3c0,0.2,0.1,0.3,0.1,0.5
					c0,0.2,0.1,0.4,0.2,0.6c0.8,2.5,2.8,4.5,5.3,5.2c0.2,0.1,0.3,0.3,0.3,0.5C-249.2,47-249.4,47.1-249.6,47.1z"/>
			</g>
			<g>
				<path class="st0" d="M-255.2,36.7c0,0-0.1,0-0.1,0c-0.2-0.1-0.4-0.3-0.3-0.5c0.8-2.9,3.1-5.1,5.9-6c0.2-0.1,0.4-0.1,0.6-0.2
					c0.2,0,0.4-0.1,0.6-0.1c0.5-0.1,1-0.1,1.4-0.1c0.2,0,0.4,0.2,0.4,0.4c0,0.2-0.2,0.4-0.4,0.4c-0.4,0-0.9,0-1.3,0.1
					c-0.2,0-0.4,0.1-0.5,0.1c-0.2,0-0.3,0.1-0.5,0.1c-2.6,0.8-4.6,2.8-5.4,5.4C-254.8,36.6-255,36.7-255.2,36.7z"/>
			</g>
			<g>
				<path class="st0" d="M-247.1,47.5c-0.2,0-0.4-0.2-0.4-0.4c0-0.2,0.2-0.4,0.4-0.4c0.4,0,0.9,0,1.3-0.1c0.2,0,0.3-0.1,0.5-0.1
					c0.2,0,0.3-0.1,0.5-0.1c2.5-0.8,4.5-2.7,5.3-5.2c0.1-0.2,0.3-0.3,0.5-0.3c0.2,0.1,0.3,0.3,0.3,0.5c-0.9,2.8-3.1,4.9-5.9,5.8
					c-0.2,0.1-0.4,0.1-0.6,0.2c-0.2,0-0.4,0.1-0.6,0.1C-246.1,47.5-246.6,47.5-247.1,47.5z"/>
			</g>
			<g>
				<path class="st0" d="M-236.4,39.1h-2.3c-0.2,0-0.4-0.2-0.4-0.4c0-0.2,0.2-0.4,0.4-0.4h2.3c0.2,0,0.4,0.2,0.4,0.4
					C-236,38.9-236.2,39.1-236.4,39.1z"/>
			</g>
			<g>
				<path class="st0" d="M-255.5,39.1h-2.3c-0.2,0-0.4-0.2-0.4-0.4c0-0.2,0.2-0.4,0.4-0.4h2.3c0.2,0,0.4,0.2,0.4,0.4
					C-255.1,38.9-255.3,39.1-255.5,39.1z"/>
			</g>
			<g>
				<path class="st0" d="M-247.1,30.6c-0.2,0-0.4-0.2-0.4-0.4v-2.3c0-0.2,0.2-0.4,0.4-0.4c0.2,0,0.4,0.2,0.4,0.4v2.3
					C-246.7,30.4-246.9,30.6-247.1,30.6z"/>
			</g>
			<g>
				<path class="st0" d="M-247.1,49.8c-0.2,0-0.4-0.2-0.4-0.4v-2.3c0-0.2,0.2-0.4,0.4-0.4c0.2,0,0.4,0.2,0.4,0.4v2.3
					C-246.7,49.6-246.9,49.8-247.1,49.8z"/>
			</g>
		</g>
		<g>
			<g>
				<path class="st0" d="M-247.1,43.1c-3.8,0-6.8-4-6.9-4.2c-0.1-0.1-0.1-0.3,0-0.5c0.1-0.2,3.1-4.2,6.9-4.2c3.8,0,6.8,4,6.9,4.2
					c0.1,0.1,0.1,0.3,0,0.5C-240.3,39.1-243.3,43.1-247.1,43.1z M-253.2,38.6c0.7,0.9,3.2,3.6,6.1,3.6c2.9,0,5.4-2.8,6.1-3.6
					c-0.7-0.9-3.2-3.6-6.1-3.6C-250,35-252.5,37.8-253.2,38.6z"/>
			</g>
			<g>
				<path class="st0" d="M-247.1,42.7c-0.1,0-0.2,0-0.2,0c-2.4-0.1-4.2-2.1-4.2-4.4c0-1.3,0.6-2.5,1.6-3.4c0.2-0.2,0.4-0.1,0.6,0
					c0.2,0.2,0.1,0.4,0,0.6c-0.8,0.7-1.3,1.7-1.3,2.7c0,1.9,1.5,3.5,3.4,3.6c0.1,0,0.3,0,0.4,0c1.9-0.1,3.4-1.7,3.4-3.6
					c0-1.1-0.5-2.1-1.3-2.7c-0.2-0.2-0.2-0.4,0-0.6c0.1-0.2,0.4-0.2,0.6,0c1,0.8,1.6,2.1,1.6,3.4c0,2.4-1.8,4.3-4.2,4.4
					C-247,42.7-247,42.7-247.1,42.7z"/>
			</g>
			<g>
				<path class="st0" d="M-247.1,40.7c-1.3,0-2.3-1-2.3-2.3s1-2.3,2.3-2.3c1.3,0,2.3,1,2.3,2.3S-245.8,40.7-247.1,40.7z
					 M-247.1,36.9c-0.8,0-1.5,0.7-1.5,1.5c0,0.8,0.7,1.5,1.5,1.5c0.8,0,1.5-0.7,1.5-1.5C-245.6,37.6-246.3,36.9-247.1,36.9z"/>
			</g>
		</g>
	</g>
</g>
<g>
	<g>
		<g>
			<g id="lock_38_">
				<g>
					<path class="st0" d="M-287.1,45.4c-0.7,0-1.2-0.6-1.2-1.2v-0.6c-0.4-0.3-0.6-0.8-0.6-1.4c0-1,0.8-1.8,1.8-1.8
						c1,0,1.8,0.8,1.8,1.8c0,0.5-0.2,1-0.6,1.4v0.6C-285.9,44.8-286.4,45.4-287.1,45.4z M-287.1,41.2c-0.6,0-1,0.5-1,1
						c0,0.3,0.2,0.6,0.4,0.8c0.1,0.1,0.2,0.2,0.2,0.3v0.8c0,0.2,0.2,0.4,0.4,0.4c0.2,0,0.4-0.2,0.4-0.4v-0.8c0-0.1,0.1-0.3,0.2-0.3
						c0.3-0.2,0.4-0.5,0.4-0.8C-286.1,41.7-286.5,41.2-287.1,41.2z"/>
				</g>
				<g>
					<path class="st0" d="M-282.2,47.6h-9.9c-0.9,0-1.7-0.8-1.7-1.7v-7.8c0-0.9,0.8-1.7,1.7-1.7h7.8c0.2,0,0.4,0.2,0.4,0.4
						s-0.2,0.4-0.4,0.4h-7.8c-0.5,0-0.9,0.4-0.9,0.9v7.8c0,0.5,0.4,0.9,0.9,0.9h9.9c0.5,0,0.9-0.4,0.9-0.9v-7.8
						c0-0.5-0.4-0.9-0.9-0.9h-0.3c-0.2,0-0.4-0.2-0.4-0.4s0.2-0.4,0.4-0.4h0.3c0.9,0,1.7,0.8,1.7,1.7v7.8
						C-280.5,46.9-281.2,47.6-282.2,47.6z M-287.1,45.4c-0.7,0-1.2-0.6-1.2-1.2v-0.6c-0.4-0.3-0.6-0.8-0.6-1.4c0-1,0.8-1.8,1.8-1.8
						c1,0,1.8,0.8,1.8,1.8c0,0.5-0.2,1-0.6,1.4v0.6C-285.9,44.8-286.4,45.4-287.1,45.4z M-287.1,41.2c-0.6,0-1,0.5-1,1
						c0,0.3,0.2,0.6,0.4,0.8c0.1,0.1,0.2,0.2,0.2,0.3v0.8c0,0.2,0.2,0.4,0.4,0.4c0.2,0,0.4-0.2,0.4-0.4v-0.8c0-0.1,0.1-0.3,0.2-0.3
						c0.3-0.2,0.4-0.5,0.4-0.8C-286.1,41.7-286.5,41.2-287.1,41.2z"/>
				</g>
				<g>
					<path class="st0" d="M-282.4,37.3c-0.2,0-0.4-0.2-0.4-0.4v-3.1c0-2.3-1.9-4.2-4.2-4.2c-2.3,0-4.2,1.9-4.2,4.2v3.1
						c0,0.2-0.2,0.4-0.4,0.4c-0.2,0-0.4-0.2-0.4-0.4v-3.1c0-2.8,2.3-5,5-5c2.8,0,5,2.3,5,5v3.1C-282,37.1-282.2,37.3-282.4,37.3z"/>
				</g>
				<g>
					<path class="st0" d="M-284.2,37.3c-0.2,0-0.4-0.2-0.4-0.4v-3c0-1.4-1.1-2.5-2.5-2.5s-2.5,1.1-2.5,2.5v1.5
						c0,0.2-0.2,0.4-0.4,0.4c-0.2,0-0.4-0.2-0.4-0.4v-1.5c0-1.8,1.5-3.3,3.3-3.3c1.8,0,3.3,1.5,3.3,3.3v3
						C-283.8,37.1-284,37.3-284.2,37.3z"/>
				</g>
			</g>
		</g>
	</g>
</g>
<g>
	<g>
		<g>
			<path class="st0" d="M-207.1,9.4c-0.1,0-0.1,0-0.2,0l-4.9-2.6c-1.9-1-3.1-3-3-5.1l0.4-10.1c0-0.2,0.1-0.3,0.3-0.4l7.3-2.3
				c0.1,0,0.2,0,0.3,0l7.3,2.3c0.2,0.1,0.3,0.2,0.3,0.4l0.4,10.1c0.1,2.1-1.1,4.1-3,5.1l-4.9,2.6C-207,9.4-207,9.4-207.1,9.4z
				 M-214-8.1l-0.4,9.8c-0.1,1.8,0.9,3.5,2.6,4.3l4.7,2.5l4.7-2.5c1.7-0.9,2.6-2.5,2.6-4.3l-0.4-9.8l-6.9-2.2L-214-8.1z"/>
		</g>
		<g>
			<path class="st0" d="M-207.1,7.5c-0.1,0-0.1,0-0.2,0l-4.1-2.2c-1.4-0.7-2.2-2.1-2.1-3.6l0.3-8.9c0-0.2,0.1-0.3,0.3-0.4l5.7-1.8
				c0.1,0,0.2,0,0.3,0l5.7,1.8c0.2,0.1,0.3,0.2,0.3,0.4l0.3,8.9c0.1,1.5-0.8,2.8-2.1,3.6l-4.1,2.2C-207,7.5-207,7.5-207.1,7.5z
				 M-212.4-6.9l-0.3,8.6c0,1.2,0.6,2.2,1.7,2.8l3.9,2.1l3.9-2.1c1.1-0.6,1.7-1.6,1.7-2.8l-0.3-8.6l-5.3-1.7L-212.4-6.9z"/>
		</g>
		<g>
			<path class="st0" d="M-207.1,5.1c-0.2,0-0.4-0.2-0.4-0.4V-6.9c0-0.2,0.2-0.4,0.4-0.4c0.2,0,0.4,0.2,0.4,0.4V4.7
				C-206.7,4.9-206.9,5.1-207.1,5.1z"/>
		</g>
		<g>
			<g>
				<path class="st0" d="M-204,3.7c-0.2,0-0.4-0.2-0.4-0.4v-8.8c0-0.2,0.2-0.4,0.4-0.4s0.4,0.2,0.4,0.4v8.8
					C-203.6,3.5-203.8,3.7-204,3.7z"/>
			</g>
			<g>
				<path class="st0" d="M-210.2,3.7c-0.2,0-0.4-0.2-0.4-0.4v-8.8c0-0.2,0.2-0.4,0.4-0.4s0.4,0.2,0.4,0.4v8.8
					C-209.7,3.5-209.9,3.7-210.2,3.7z"/>
			</g>
		</g>
	</g>
</g>
<g>
	<g>
		<g>
			<g>
				<path class="st0" d="M-247,9.9c-0.1,0-0.1,0-0.2,0l-1.9-0.8c-0.2-0.1-0.3-0.2-0.3-0.4v-8c-1.9-0.9-3.1-2.7-3.1-4.8
					c0-2.9,2.4-5.3,5.3-5.3c2.9,0,5.3,2.4,5.3,5.3c0,2.1-1.2,3.9-3.1,4.8v6.8c0,0.2-0.1,0.4-0.3,0.4l-1.4,0.3v1.2
					c0,0.1-0.1,0.3-0.2,0.3C-246.8,9.9-246.9,9.9-247,9.9z M-248.5,8.4l1.1,0.4V7.9c0-0.2,0.1-0.4,0.3-0.4l1.4-0.3V0.4
					c0-0.2,0.1-0.3,0.3-0.4c1.7-0.7,2.8-2.3,2.8-4.1c0-2.4-2-4.4-4.4-4.4c-2.4,0-4.4,2-4.4,4.4c0,1.8,1.1,3.4,2.8,4.1
					c0.2,0.1,0.3,0.2,0.3,0.4V8.4z"/>
			</g>
			<g>
				<path class="st0" d="M-245.3,1.9h-1.2c-0.2,0-0.4-0.2-0.4-0.4c0-0.2,0.2-0.4,0.4-0.4h1.2c0.2,0,0.4,0.2,0.4,0.4
					C-244.9,1.7-245.1,1.9-245.3,1.9z"/>
			</g>
			<g>
				<path class="st0" d="M-245.3,3.5h-0.8c-0.2,0-0.4-0.2-0.4-0.4c0-0.2,0.2-0.4,0.4-0.4h0.8c0.2,0,0.4,0.2,0.4,0.4
					C-244.9,3.3-245.1,3.5-245.3,3.5z"/>
			</g>
			<g>
				<path class="st0" d="M-245.3,6.8h-0.8c-0.2,0-0.4-0.2-0.4-0.4c0-0.2,0.2-0.4,0.4-0.4h0.8c0.2,0,0.4,0.2,0.4,0.4
					C-244.9,6.6-245.1,6.8-245.3,6.8z"/>
			</g>
			<g>
				<path class="st0" d="M-245.3,5.2h-1.2c-0.2,0-0.4-0.2-0.4-0.4c0-0.2,0.2-0.4,0.4-0.4h1.2c0.2,0,0.4,0.2,0.4,0.4
					C-244.9,5-245.1,5.2-245.3,5.2z"/>
			</g>
			<g>
				<path class="st0" d="M-247.1-4.3c-0.9,0-1.7-0.8-1.7-1.7c0-0.9,0.8-1.7,1.7-1.7c0.9,0,1.7,0.8,1.7,1.7
					C-245.4-5.1-246.2-4.3-247.1-4.3z M-247.1-6.9c-0.5,0-0.9,0.4-0.9,0.9c0,0.5,0.4,0.9,0.9,0.9c0.5,0,0.9-0.4,0.9-0.9
					C-246.2-6.5-246.6-6.9-247.1-6.9z"/>
			</g>
		</g>
		<g>
			<g>
				<path class="st0" d="M-255.5-6.5c-0.2,0-0.4-0.2-0.4-0.4v-3.5c0-0.2,0.2-0.4,0.4-0.4h3.5c0.2,0,0.4,0.2,0.4,0.4
					s-0.2,0.4-0.4,0.4h-3.1v3.1C-255.1-6.7-255.3-6.5-255.5-6.5z"/>
			</g>
			<g>
				<path class="st0" d="M-252,6.8h-3.5c-0.2,0-0.4-0.2-0.4-0.4V2.9c0-0.2,0.2-0.4,0.4-0.4c0.2,0,0.4,0.2,0.4,0.4V6h3.1
					c0.2,0,0.4,0.2,0.4,0.4C-251.6,6.6-251.8,6.8-252,6.8z"/>
			</g>
			<g>
				<path class="st0" d="M-238.7-6.5c-0.2,0-0.4-0.2-0.4-0.4V-10h-3.1c-0.2,0-0.4-0.2-0.4-0.4s0.2-0.4,0.4-0.4h3.5
					c0.2,0,0.4,0.2,0.4,0.4v3.5C-238.3-6.7-238.5-6.5-238.7-6.5z"/>
			</g>
			<g>
				<path class="st0" d="M-238.7,6.8h-3.5c-0.2,0-0.4-0.2-0.4-0.4c0-0.2,0.2-0.4,0.4-0.4h3.1V2.9c0-0.2,0.2-0.4,0.4-0.4
					c0.2,0,0.4,0.2,0.4,0.4v3.5C-238.3,6.6-238.5,6.8-238.7,6.8z"/>
			</g>
		</g>
	</g>
</g>
<g>
	<g>
		<g>
			<g>
				<g>
					<path class="st0" d="M-285.8-3.7c-0.2,0-0.3-0.1-0.4-0.3c-0.8-1.8-2.5-3-4.5-3c0,0,0,0-0.1,0c-0.2,0-0.4-0.1-0.5-0.4
						c0-0.2,0.1-0.4,0.4-0.5c0.1,0,0.1,0,0.2,0c2.3,0,4.4,1.4,5.3,3.5c0.1,0.2,0,0.5-0.2,0.6C-285.7-3.7-285.7-3.7-285.8-3.7z"/>
				</g>
			</g>
			<g>
				<path class="st0" d="M-282,6.1h-1.2c-0.2,0-0.4-0.2-0.4-0.4c0-0.2,0.2-0.4,0.4-0.4h1.2c2.9,0,5.2-2.3,5.2-5.2
					c0-2-1.1-3.8-2.9-4.7c-0.1-0.1-0.2-0.2-0.2-0.3c-0.6-2.7-3-4.6-5.8-4.6c-1.9,0-3.6,0.9-4.8,2.4c-0.1,0.1-0.2,0.2-0.3,0.2
					c-0.6,0-1.2,0.1-1.8,0.4c-1.8,0.8-3,2.5-3,4.5v0.1c0,0.1-0.1,0.3-0.2,0.3c-1,0.7-1.6,1.9-1.6,3.1c0,2.1,1.7,3.8,3.8,3.8h3.1
					c0.2,0,0.4,0.2,0.4,0.4c0,0.2-0.2,0.4-0.4,0.4h-3.1c-2.5,0-4.6-2.1-4.6-4.6c0-1.4,0.7-2.8,1.8-3.6c0.1-2.3,1.4-4.3,3.5-5.1
					c0.6-0.3,1.2-0.4,1.9-0.4c1.3-1.6,3.2-2.6,5.3-2.6c3.1,0,5.8,2.1,6.5,5.1c2,1.1,3.2,3.1,3.2,5.3C-276,3.4-278.7,6.1-282,6.1z"/>
			</g>
			<g>
				<g>
					<path class="st0" d="M-286.9,7.6c-2.8,0-5.1-2.3-5.1-5.1c0-2.8,2.3-5.1,5.1-5.1c2.8,0,5.1,2.3,5.1,5.1
						C-281.8,5.3-284.1,7.6-286.9,7.6z M-286.9-1.7c-2.3,0-4.3,1.9-4.3,4.3s1.9,4.3,4.3,4.3s4.3-1.9,4.3-4.3S-284.5-1.7-286.9-1.7z"
						/>
				</g>
				<g>
					<g>
						<g id="lock_39_">
							<g>
								<path class="st0" d="M-285.4,5.5h-2.9c-0.4,0-0.8-0.4-0.8-0.8V2.4c0-0.4,0.4-0.8,0.8-0.8h2.9c0.4,0,0.8,0.4,0.8,0.8v2.3
									C-284.6,5.2-285,5.5-285.4,5.5z M-288.3,4.7h2.8V2.5h-2.8V4.7z"/>
							</g>
							<g>
								<path class="st0" d="M-285.5,2.5c-0.2,0-0.4-0.2-0.4-0.4V1.2c0-0.5-0.4-0.9-0.9-0.9c-0.5,0-0.9,0.4-0.9,0.9v0.9
									c0,0.2-0.2,0.4-0.4,0.4s-0.4-0.2-0.4-0.4V1.2c0-1,0.8-1.8,1.8-1.8c1,0,1.8,0.8,1.8,1.8v0.9C-285.1,2.3-285.3,2.5-285.5,2.5z
									"/>
							</g>
						</g>
					</g>
				</g>
			</g>
		</g>
	</g>
</g>
<g>
	<g>
		<g>
			<g>
				<path class="st0" d="M-213.5-38c-0.2,0-0.5,0-0.7-0.1c-0.9-0.2-1.6-0.9-1.9-1.7l-1.5-4.3c-0.1-0.2,0-0.5,0.3-0.5l9.3-3.4
					c0.4-0.2,0.9-0.2,1.3-0.2c1.1,0,2.2,0.5,2.9,1.3c0.2,0.3,0.4,0.6,0.6,0.9c0,0.1,0.1,0.2,0.1,0.3c0.2,0.4,0.2,0.9,0.2,1.3
					c0,1.6-1,3.1-2.5,3.6l-4.4,1.6c-0.1,0-2.1,0.8-2.7,1c-0.2,0-0.4,0.1-0.6,0.1C-213.2-38-213.3-38-213.5-38z M-216.7-44l1.4,3.9
					c0.2,0.6,0.7,1,1.3,1.2c0.3,0.1,0.5,0.1,0.8,0.1c0.1,0,0.3-0.1,0.4-0.1c0.6-0.2,2.7-1,2.7-1l4.4-1.6c1.2-0.4,2-1.6,2-2.9
					c0-0.3-0.1-0.7-0.2-1c0-0.1-0.1-0.2-0.1-0.2c-0.1-0.3-0.3-0.5-0.5-0.7c-0.6-0.7-1.4-1.1-2.3-1.1c-0.4,0-0.7,0.1-1,0.2L-216.7-44
					z"/>
			</g>
		</g>
		<g>
			<g>
				<path class="st0" d="M-205.9-33.8c-1.4,0-2.5-1.1-2.5-2.5c0-1.4,1.1-2.5,2.5-2.5c1.4,0,2.5,1.1,2.5,2.5
					C-203.4-34.9-204.5-33.8-205.9-33.8z M-205.9-38c-0.9,0-1.7,0.7-1.7,1.7c0,0.9,0.7,1.7,1.7,1.7c0.9,0,1.7-0.7,1.7-1.7
					C-204.2-37.2-205-38-205.9-38z"/>
			</g>
		</g>
		<g>
			<g>
				<path class="st0" d="M-200.6-36.9h-3.4c-0.2,0-0.4-0.2-0.4-0.4s0.2-0.4,0.4-0.4h3.4c0.2,0,0.4,0.2,0.4,0.4
					S-200.4-36.9-200.6-36.9z"/>
			</g>
			<g>
				<path class="st0" d="M-200.6-34.8h-3.2c-0.2,0-0.4-0.2-0.4-0.4s0.2-0.4,0.4-0.4h3.2c0.2,0,0.4,0.2,0.4,0.4
					S-200.4-34.8-200.6-34.8z"/>
			</g>
		</g>
		<g>
			<g>
				<path class="st0" d="M-206-38.1c-0.2,0-0.4-0.1-0.4-0.4l-0.3-2.2c0-0.2,0.1-0.4,0.3-0.5c0.2,0,0.4,0.1,0.5,0.3l0.3,2.2
					C-205.5-38.3-205.7-38.1-206-38.1C-205.9-38.1-206-38.1-206-38.1z"/>
			</g>
			<g>
				<path class="st0" d="M-208-36.8c-0.1,0-0.2,0-0.3-0.1l-2-2.3c-0.2-0.2-0.1-0.4,0-0.6c0.2-0.2,0.4-0.1,0.6,0l2,2.3
					c0.2,0.2,0.1,0.4,0,0.6C-207.8-36.9-207.9-36.8-208-36.8z"/>
			</g>
		</g>
		<g>
			<g>
				<path class="st0" d="M-205.9-35.8c-0.3,0-0.5-0.2-0.5-0.5s0.2-0.5,0.5-0.5c0.3,0,0.5,0.2,0.5,0.5S-205.6-35.8-205.9-35.8z"/>
			</g>
		</g>
		<g>
			<g>
				<path class="st0" d="M-214.1-38.1c-0.2,0-0.4-0.2-0.4-0.4l-0.1-2.3c-0.1-1.4,0.8-2.7,2.1-3.2l5.1-1.9c0.2-0.1,0.5,0,0.5,0.2
					c0.1,0.2,0,0.5-0.2,0.5l-5.1,1.9c-1,0.4-1.6,1.3-1.6,2.4l0.1,2.3C-213.7-38.3-213.8-38.1-214.1-38.1
					C-214.1-38.1-214.1-38.1-214.1-38.1z"/>
			</g>
		</g>
		<g>
			<path class="st0" d="M-200.2-32.1c-1.5,0-2.8-1.2-2.8-2.8v-0.4c0-0.2,0.2-0.4,0.4-0.4s0.4,0.2,0.4,0.4v0.4c0,1.1,0.9,1.9,1.9,1.9
				s1.9-0.9,1.9-1.9v-2.9c0-1.1-0.9-1.9-1.9-1.9s-1.9,0.9-1.9,1.9v0.4c0,0.2-0.2,0.4-0.4,0.4s-0.4-0.2-0.4-0.4v-0.4
				c0-1.5,1.2-2.8,2.8-2.8c1.5,0,2.8,1.2,2.8,2.8v2.9C-197.4-33.3-198.7-32.1-200.2-32.1z"/>
		</g>
	</g>
</g>
<g>
	<g>
		<g>
			<g>
				<g>
					<path class="st0" d="M-247.1-34.2L-247.1-34.2c-1.8,0-3.6-0.7-4.8-2c-1.3-1.3-2-3-2-4.8c0-3.8,3.1-6.9,6.9-6.9
						c3.8,0,6.9,3.1,6.9,6.9c0,1.8-0.7,3.6-2,4.8C-243.5-35-245.3-34.2-247.1-34.2z M-247.1-47.1c-3.3,0-6,2.7-6,6
						c0,1.6,0.6,3.1,1.8,4.2c1.1,1.1,2.6,1.8,4.2,1.8h0c1.6,0,3.1-0.6,4.2-1.8c1.1-1.1,1.8-2.6,1.8-4.2
						C-241.1-44.4-243.8-47.1-247.1-47.1z"/>
				</g>
				<g>
					<path class="st0" d="M-247.1-35.8c-1.4,0-2.7-0.5-3.7-1.5c-1-1-1.5-2.3-1.5-3.7c0-2.9,2.4-5.3,5.3-5.3s5.3,2.4,5.3,5.3
						c0,1.4-0.5,2.7-1.5,3.7C-244.4-36.4-245.7-35.8-247.1-35.8z M-247.1-45.5c-2.4,0-4.4,2-4.4,4.4c0,1.2,0.5,2.3,1.3,3.1
						c0.8,0.8,1.9,1.3,3.1,1.3c1.2,0,2.3-0.5,3.1-1.3c0.8-0.8,1.3-1.9,1.3-3.1C-242.7-43.5-244.7-45.5-247.1-45.5z"/>
				</g>
			</g>
			<g>
				<g>
					<path class="st0" d="M-252.2-40.7h-2.4c-0.2,0-0.4-0.2-0.4-0.4c0-0.2,0.2-0.4,0.4-0.4h2.4c0.2,0,0.4,0.2,0.4,0.4
						C-251.7-40.9-251.9-40.7-252.2-40.7z"/>
				</g>
				<g>
					<path class="st0" d="M-239.6-40.7h-2.4c-0.2,0-0.4-0.2-0.4-0.4c0-0.2,0.2-0.4,0.4-0.4h2.4c0.2,0,0.4,0.2,0.4,0.4
						C-239.2-40.9-239.4-40.7-239.6-40.7z"/>
				</g>
				<g>
					<path class="st0" d="M-237.1-39.5c-0.9,0-1.6-0.7-1.6-1.6c0-0.9,0.7-1.6,1.6-1.6c0.9,0,1.6,0.7,1.6,1.6
						C-235.6-40.2-236.3-39.5-237.1-39.5z M-237.1-41.8c-0.4,0-0.7,0.3-0.7,0.7c0,0.4,0.3,0.7,0.7,0.7c0.4,0,0.7-0.3,0.7-0.7
						C-236.4-41.5-236.7-41.8-237.1-41.8z"/>
				</g>
				<g>
					<path class="st0" d="M-257.1-39.5c-0.9,0-1.6-0.7-1.6-1.6c0-0.9,0.7-1.6,1.6-1.6c0.9,0,1.6,0.7,1.6,1.6
						C-255.5-40.2-256.2-39.5-257.1-39.5z M-257.1-41.8c-0.4,0-0.7,0.3-0.7,0.7c0,0.4,0.3,0.7,0.7,0.7c0.4,0,0.7-0.3,0.7-0.7
						C-256.4-41.5-256.7-41.8-257.1-41.8z"/>
				</g>
			</g>
			<g>
				<g>
					<path class="st0" d="M-253.2-34.6c-0.1,0-0.2,0-0.3-0.1c-0.2-0.2-0.2-0.4,0-0.6l2.5-2.5c0.2-0.2,0.4-0.2,0.6,0
						c0.2,0.2,0.2,0.4,0,0.6l-2.5,2.5C-253-34.6-253.1-34.6-253.2-34.6z"/>
				</g>
				<g>
					<path class="st0" d="M-242.5-45.2c-0.1,0-0.2,0-0.3-0.1c-0.2-0.2-0.2-0.4,0-0.6l0.7-0.7c0.2-0.2,0.4-0.2,0.6,0
						c0.2,0.2,0.2,0.4,0,0.6l-0.7,0.7C-242.3-45.3-242.4-45.2-242.5-45.2z"/>
				</g>
				<g>
					<path class="st0" d="M-254.2-32.5c-0.4,0-0.8-0.2-1.1-0.5c-0.3-0.3-0.5-0.7-0.5-1.1c0-0.4,0.2-0.8,0.5-1.1
						c0.6-0.6,1.6-0.6,2.2,0c0.3,0.3,0.5,0.7,0.5,1.1c0,0.4-0.2,0.8-0.5,1.1C-253.3-32.6-253.7-32.5-254.2-32.5z M-254.2-34.8
						c-0.2,0-0.4,0.1-0.5,0.2c-0.1,0.1-0.2,0.3-0.2,0.5c0,0.2,0.1,0.4,0.2,0.5c0.3,0.3,0.7,0.3,1,0c0.1-0.1,0.2-0.3,0.2-0.5
						c0-0.2-0.1-0.4-0.2-0.5C-253.8-34.7-254-34.8-254.2-34.8z"/>
				</g>
				<g>
					<g>
						<path class="st0" d="M-240.4-45.6c-0.6,0-1.1-0.2-1.6-0.6c-0.9-0.9-0.9-2.3,0-3.1c0.4-0.4,1-0.6,1.6-0.6
							c0.6,0,1.1,0.2,1.6,0.6c0.9,0.9,0.9,2.3,0,3.1C-239.3-45.8-239.8-45.6-240.4-45.6z M-240.4-49.1c-0.4,0-0.7,0.1-1,0.4
							c-0.5,0.5-0.5,1.4,0,1.9c0.5,0.5,1.4,0.5,1.9,0c0.5-0.5,0.5-1.4,0-1.9C-239.7-49-240.1-49.1-240.4-49.1z"/>
					</g>
				</g>
			</g>
			<g>
				<path class="st0" d="M-247.1-45.7c-0.2,0-0.4-0.2-0.4-0.4v-2.4c0-0.2,0.2-0.4,0.4-0.4c0.2,0,0.4,0.2,0.4,0.4v2.4
					C-246.7-45.9-246.9-45.7-247.1-45.7z"/>
			</g>
			<g>
				<path class="st0" d="M-247.1-33.3c-0.2,0-0.4-0.2-0.4-0.4v-1c0-0.2,0.2-0.4,0.4-0.4c0.2,0,0.4,0.2,0.4,0.4v1
					C-246.7-33.5-246.9-33.3-247.1-33.3z"/>
			</g>
			<g>
				<path class="st0" d="M-247.1-49.5c-0.9,0-1.6-0.7-1.6-1.6c0-0.9,0.7-1.6,1.6-1.6c0.9,0,1.6,0.7,1.6,1.6
					C-245.5-50.2-246.2-49.5-247.1-49.5z M-247.1-51.8c-0.4,0-0.7,0.3-0.7,0.7c0,0.4,0.3,0.7,0.7,0.7c0.4,0,0.7-0.3,0.7-0.7
					C-246.4-51.5-246.7-51.8-247.1-51.8z"/>
			</g>
			<g>
				<g>
					<path class="st0" d="M-247.1-29.5c-0.6,0-1.1-0.2-1.6-0.6c-0.9-0.9-0.9-2.3,0-3.1c0.4-0.4,1-0.6,1.6-0.6c0.6,0,1.1,0.2,1.6,0.6
						c0.9,0.9,0.9,2.3,0,3.1C-246-29.7-246.5-29.5-247.1-29.5z M-247.1-33.1c-0.4,0-0.7,0.1-1,0.4c-0.5,0.5-0.5,1.4,0,1.9
						c0.5,0.5,1.4,0.5,1.9,0c0.5-0.5,0.5-1.4,0-1.9C-246.4-32.9-246.7-33.1-247.1-33.1z"/>
				</g>
			</g>
			<g>
				<path class="st0" d="M-241-34.5c-0.1,0-0.2,0-0.3-0.1l-2.6-2.6c-0.2-0.2-0.2-0.4,0-0.6c0.2-0.2,0.4-0.2,0.6,0l2.6,2.6
					c0.2,0.2,0.2,0.4,0,0.6C-240.7-34.6-240.8-34.5-241-34.5z"/>
			</g>
			<g>
				<path class="st0" d="M-251.6-45.2c-0.1,0-0.2,0-0.3-0.1l-0.7-0.7c-0.2-0.2-0.2-0.4,0-0.6c0.2-0.2,0.4-0.2,0.6,0l0.7,0.7
					c0.2,0.2,0.2,0.4,0,0.6C-251.4-45.3-251.5-45.2-251.6-45.2z"/>
			</g>
			<g>
				<path class="st0" d="M-240-32.5c-0.4,0-0.8-0.2-1.1-0.5c-0.3-0.3-0.5-0.7-0.5-1.1c0-0.4,0.2-0.8,0.5-1.1c0.6-0.6,1.6-0.6,2.2,0
					c0.3,0.3,0.5,0.7,0.5,1.1c0,0.4-0.2,0.8-0.5,1.1C-239.2-32.6-239.6-32.5-240-32.5z M-240-34.8c-0.2,0-0.4,0.1-0.5,0.2
					c-0.1,0.1-0.2,0.3-0.2,0.5c0,0.2,0.1,0.4,0.2,0.5c0.3,0.3,0.7,0.3,1,0c0.1-0.1,0.2-0.3,0.2-0.5c0-0.2-0.1-0.4-0.2-0.5
					C-239.7-34.7-239.8-34.8-240-34.8z"/>
			</g>
			<g>
				<g>
					<path class="st0" d="M-253.8-45.6c-0.6,0-1.1-0.2-1.6-0.6c-0.9-0.9-0.9-2.3,0-3.1c0.4-0.4,1-0.6,1.6-0.6c0.6,0,1.1,0.2,1.6,0.6
						c0.9,0.9,0.9,2.3,0,3.1C-252.6-45.8-253.2-45.6-253.8-45.6z M-253.8-49.1c-0.4,0-0.7,0.1-1,0.4c-0.5,0.5-0.5,1.4,0,1.9
						c0.5,0.5,1.4,0.5,1.9,0c0.5-0.5,0.5-1.4,0-1.9C-253-49-253.4-49.1-253.8-49.1z"/>
				</g>
			</g>
			<g>
				<path class="st0" d="M-247.1-37.4c-0.1,0-0.1,0-0.2,0l-1.6-0.9c-0.7-0.4-1.2-1.1-1.2-2l0.1-3.4c0-0.2,0.1-0.3,0.3-0.4l2.4-0.8
					c0.1,0,0.2,0,0.3,0l2.4,0.8c0.2,0.1,0.3,0.2,0.3,0.4l0.1,3.4c0,0.8-0.4,1.6-1.2,2l-1.6,0.9C-247-37.4-247-37.4-247.1-37.4z
					 M-249.1-43.3l-0.1,3.1c0,0.5,0.3,0.9,0.7,1.2l1.4,0.8l1.4-0.8c0.5-0.2,0.7-0.7,0.7-1.2l-0.1-3.1l-2-0.6L-249.1-43.3z"/>
			</g>
		</g>
	</g>
</g>
<g>
	<g>
		<g>
			<g>
				<path class="st0" d="M-281.3-34.1h-11.7c-1.8,0-3.2-1.4-3.2-3.2v-8.5c0-1.8,1.4-3.2,3.2-3.2h11.7c1.8,0,3.2,1.4,3.2,3.2v8.5
					C-278.1-35.5-279.5-34.1-281.3-34.1z M-292.9-48.1c-1.3,0-2.4,1.1-2.4,2.4v8.5c0,1.3,1.1,2.4,2.4,2.4h11.7
					c1.3,0,2.4-1.1,2.4-2.4v-8.5c0-1.3-1.1-2.4-2.4-2.4H-292.9z"/>
			</g>
			<g>
				<g>
					<path class="st0" d="M-290.1-42c-1.3,0-2.3-1-2.3-2.3c0-1.3,1-2.3,2.3-2.3c1.3,0,2.3,1,2.3,2.3C-287.7-43-288.8-42-290.1-42z
						 M-290.1-45.8c-0.8,0-1.5,0.7-1.5,1.5c0,0.8,0.7,1.5,1.5,1.5c0.8,0,1.5-0.7,1.5-1.5C-288.6-45.1-289.2-45.8-290.1-45.8z"/>
				</g>
				<g>
					<path class="st0" d="M-289.5-44.4c-0.1,0-0.2,0-0.3-0.1c-0.2-0.2-0.2-0.4,0-0.6l0.6-0.6c0.2-0.2,0.4-0.2,0.6,0
						c0.2,0.2,0.2,0.4,0,0.6l-0.6,0.6C-289.3-44.5-289.4-44.4-289.5-44.4z"/>
				</g>
			</g>
			<g>
				<g>
					<g>
						<path class="st0" d="M-291.4-32.3h-1.2c-0.7,0-1.2-0.6-1.2-1.2V-34c0-0.2,0.2-0.4,0.4-0.4c0.2,0,0.4,0.2,0.4,0.4v0.6
							c0,0.2,0.2,0.4,0.4,0.4h1.2c0.2,0,0.4-0.2,0.4-0.4V-34c0-0.2,0.2-0.4,0.4-0.4s0.4,0.2,0.4,0.4v0.6
							C-290.2-32.8-290.7-32.3-291.4-32.3z"/>
					</g>
				</g>
				<g>
					<g>
						<path class="st0" d="M-281.6-32.3h-1.2c-0.7,0-1.2-0.6-1.2-1.2V-34c0-0.2,0.2-0.4,0.4-0.4c0.2,0,0.4,0.2,0.4,0.4v0.6
							c0,0.2,0.2,0.4,0.4,0.4h1.2c0.2,0,0.4-0.2,0.4-0.4V-34c0-0.2,0.2-0.4,0.4-0.4c0.2,0,0.4,0.2,0.4,0.4v0.6
							C-280.4-32.8-280.9-32.3-281.6-32.3z"/>
					</g>
				</g>
			</g>
			<g>
				<g>
					<path class="st0" d="M-292.1-39.9h-0.6c-0.2,0-0.4-0.2-0.4-0.4c0-0.2,0.2-0.4,0.4-0.4h0.6c0.2,0,0.4,0.2,0.4,0.4
						C-291.7-40.1-291.9-39.9-292.1-39.9z"/>
				</g>
				<g>
					<path class="st0" d="M-289.8-39.9h-0.6c-0.2,0-0.4-0.2-0.4-0.4c0-0.2,0.2-0.4,0.4-0.4h0.6c0.2,0,0.4,0.2,0.4,0.4
						C-289.4-40.1-289.5-39.9-289.8-39.9z"/>
				</g>
				<g>
					<path class="st0" d="M-287.4-39.9h-0.6c-0.2,0-0.4-0.2-0.4-0.4c0-0.2,0.2-0.4,0.4-0.4h0.6c0.2,0,0.4,0.2,0.4,0.4
						C-287-40.1-287.2-39.9-287.4-39.9z"/>
				</g>
			</g>
			<g>
				<g>
					<path class="st0" d="M-292.1-38.1h-0.6c-0.2,0-0.4-0.2-0.4-0.4c0-0.2,0.2-0.4,0.4-0.4h0.6c0.2,0,0.4,0.2,0.4,0.4
						C-291.7-38.3-291.9-38.1-292.1-38.1z"/>
				</g>
				<g>
					<path class="st0" d="M-289.8-38.1h-0.6c-0.2,0-0.4-0.2-0.4-0.4c0-0.2,0.2-0.4,0.4-0.4h0.6c0.2,0,0.4,0.2,0.4,0.4
						C-289.4-38.3-289.5-38.1-289.8-38.1z"/>
				</g>
				<g>
					<path class="st0" d="M-287.4-38.1h-0.6c-0.2,0-0.4-0.2-0.4-0.4c0-0.2,0.2-0.4,0.4-0.4h0.6c0.2,0,0.4,0.2,0.4,0.4
						C-287-38.3-287.2-38.1-287.4-38.1z"/>
				</g>
			</g>
			<g>
				<g>
					<path class="st0" d="M-292.1-36.2h-0.6c-0.2,0-0.4-0.2-0.4-0.4c0-0.2,0.2-0.4,0.4-0.4h0.6c0.2,0,0.4,0.2,0.4,0.4
						C-291.7-36.4-291.9-36.2-292.1-36.2z"/>
				</g>
				<g>
					<path class="st0" d="M-289.8-36.2h-0.6c-0.2,0-0.4-0.2-0.4-0.4c0-0.2,0.2-0.4,0.4-0.4h0.6c0.2,0,0.4,0.2,0.4,0.4
						C-289.4-36.4-289.5-36.2-289.8-36.2z"/>
				</g>
				<g>
					<path class="st0" d="M-287.4-36.2h-0.6c-0.2,0-0.4-0.2-0.4-0.4c0-0.2,0.2-0.4,0.4-0.4h0.6c0.2,0,0.4,0.2,0.4,0.4
						C-287-36.4-287.2-36.2-287.4-36.2z"/>
				</g>
			</g>
			<g>
				<g>
					<path class="st0" d="M-280.1-43.2c-0.2,0-0.4-0.2-0.4-0.4v-1.9c0-0.2,0.2-0.4,0.4-0.4c0.2,0,0.4,0.2,0.4,0.4v1.9
						C-279.7-43.4-279.8-43.2-280.1-43.2z"/>
				</g>
				<g>
					<path class="st0" d="M-280.1-37.1c-0.2,0-0.4-0.2-0.4-0.4v-1.9c0-0.2,0.2-0.4,0.4-0.4c0.2,0,0.4,0.2,0.4,0.4v1.9
						C-279.7-37.3-279.8-37.1-280.1-37.1z"/>
				</g>
			</g>
		</g>
	</g>
</g>
<g>
	<g>
		<path class="st1" d="M37.8,62.9c-6.3-1.9-11.2-6.8-13.2-13c-0.1-0.4-0.3-0.9-0.4-1.5c-0.1-0.4-0.2-0.9-0.3-1.3
			c-0.2-1.1-0.3-2.2-0.3-3.3c0-0.8-0.6-1.4-1.4-1.4c0,0,0,0,0,0h-5.7c-0.8,0-1.4,0.6-1.4,1.4s0.6,1.4,1.4,1.4h4.4
			c0,0.8,0.1,1.5,0.2,2.3c0.1,0.5,0.2,1,0.3,1.5c0.1,0.6,0.3,1.3,0.5,1.7c2.3,7.1,7.9,12.7,15.1,14.9c0.1,0,0.3,0.1,0.4,0.1
			c0.6,0,1.2-0.4,1.4-1C39,63.9,38.5,63.1,37.8,62.9z"/>
		<path class="st1" d="M45,22.5C45,22.5,45,22.5,45,22.5v-5.7c0-0.8-0.6-1.4-1.4-1.4s-1.4,0.6-1.4,1.4v4.4c-0.8,0-1.5,0.1-2.2,0.2
			c-0.5,0.1-1,0.2-1.5,0.3c-0.5,0.1-1,0.2-1.5,0.4c-7.4,2.2-13.1,8-15.2,15.4c-0.1,0.4-0.1,0.8,0.1,1.1c0.2,0.3,0.5,0.6,0.9,0.7
			c0.1,0,0.3,0.1,0.4,0.1c0.6,0,1.2-0.4,1.4-1c1.9-6.5,6.9-11.5,13.3-13.5c0.4-0.1,0.8-0.2,1.2-0.3c0.4-0.1,0.9-0.2,1.3-0.3
			c1.1-0.2,2.2-0.3,3.2-0.3C44.4,24,45,23.3,45,22.5z"/>
		<path class="st1" d="M64.4,48.9c-0.4-0.1-0.8-0.1-1.1,0.1c-0.3,0.2-0.6,0.5-0.7,0.8c-2,6.3-6.9,11.1-13.2,13
			c-0.4,0.1-0.8,0.2-1.3,0.3c-0.4,0.1-0.8,0.2-1.3,0.3c-1.1,0.2-2.1,0.3-3.2,0.3c0,0,0,0,0,0c-0.8,0-1.4,0.6-1.4,1.4v5.7
			c0,0.8,0.6,1.4,1.4,1.4s1.4-0.6,1.4-1.4v-4.4c0.8,0,1.5-0.1,2.2-0.2c0.5-0.1,1-0.2,1.5-0.3c0.5-0.1,1-0.2,1.4-0.4
			c7.2-2.2,12.8-7.8,15.1-14.9c0.1-0.4,0.1-0.8-0.1-1.1C65,49.3,64.7,49.1,64.4,48.9z"/>
		<path class="st1" d="M70.7,42.4h-4.4c0-0.8-0.1-1.5-0.2-2.3c-0.1-0.5-0.2-1.1-0.3-1.5c-0.1-0.4-0.2-0.8-0.3-1.2
			c-2.1-7.4-7.8-13.2-15.2-15.4c-0.8-0.2-1.6,0.2-1.8,1c-0.2,0.8,0.2,1.6,1,1.8c6.5,2,11.4,7,13.3,13.5c0.1,0.3,0.2,0.7,0.3,1.1
			c0.1,0.4,0.2,0.8,0.3,1.2c0.2,1.1,0.3,2.2,0.3,3.2c0,0.2,0,0.4,0.1,0.6c0.2,0.5,0.7,0.9,1.3,0.9h5.7c0.8,0,1.4-0.6,1.4-1.4
			S71.5,42.4,70.7,42.4z"/>
	</g>
	<path class="st1" d="M43.6,55.1c-9.7,0-17.2-10.2-17.6-10.6c-0.3-0.4-0.3-0.9,0-1.3c0.3-0.4,7.9-10.6,17.6-10.6
		c9.7,0,17.2,10.2,17.6,10.6c0.3,0.4,0.3,0.9,0,1.3C60.8,44.9,53.2,55.1,43.6,55.1z M28.2,43.9C30,46,36.3,53,43.6,53
		c7.3,0,13.6-7,15.4-9.1c-1.8-2.2-8.1-9.1-15.4-9.1C36.3,34.7,30,41.7,28.2,43.9z"/>
	<path class="st1" d="M43.6,54.3c-0.2,0-0.4,0-0.6,0C37,53.9,32.4,49,32.4,43c0-3.3,1.4-6.4,3.9-8.5c0.4-0.4,1.1-0.3,1.5,0.1
		c0.4,0.4,0.3,1.1-0.1,1.5c-2,1.7-3.2,4.3-3.2,6.9c0,4.8,3.8,8.8,8.6,9.1c0.3,0,0.7,0,0.9,0c4.8-0.2,8.6-4.2,8.6-9.1
		c0-2.7-1.2-5.2-3.2-6.9c-0.4-0.4-0.5-1-0.1-1.5c0.4-0.4,1-0.5,1.5-0.1c2.5,2.1,4,5.3,4,8.6c0,6-4.7,10.9-10.6,11.2
		C43.9,54.2,43.8,54.3,43.6,54.3z"/>
	<path class="st1" d="M43.6,49c-3.2,0-5.8-2.6-5.8-5.8c0-3.2,2.6-5.8,5.8-5.8c3.2,0,5.8,2.6,5.8,5.8C49.4,46.4,46.8,49,43.6,49z
		 M43.6,39.5c-2,0-3.7,1.7-3.7,3.7c0,2,1.7,3.7,3.7,3.7c2,0,3.7-1.7,3.7-3.7C47.3,41.2,45.6,39.5,43.6,39.5z"/>
	<g>
		<g>
			<g>
				<g>
					<path class="st1" d="M75.7,49.2c-2.9,0-5.3-2.4-5.3-5.3c0-2.9,2.4-5.3,5.3-5.3c2.9,0,5.3,2.4,5.3,5.3
						C81.1,46.8,78.7,49.2,75.7,49.2z M75.7,41.4c-1.4,0-2.5,1.1-2.5,2.5c0,1.4,1.1,2.5,2.5,2.5c1.4,0,2.5-1.1,2.5-2.5
						C78.2,42.5,77.1,41.4,75.7,41.4z"/>
				</g>
				<g>
					<path class="st1" d="M11.4,49.2c-2.9,0-5.3-2.4-5.3-5.3c0-2.9,2.4-5.3,5.3-5.3c2.9,0,5.3,2.4,5.3,5.3
						C16.8,46.8,14.4,49.2,11.4,49.2z M11.4,41.4c-1.4,0-2.5,1.1-2.5,2.5c0,1.4,1.1,2.5,2.5,2.5c1.4,0,2.5-1.1,2.5-2.5
						C13.9,42.5,12.8,41.4,11.4,41.4z"/>
				</g>
			</g>
			<g>
				<path class="st1" d="M22.7,66.2c-0.4,0-0.7-0.1-1-0.4c-0.6-0.6-0.6-1.5,0-2l5.1-5.2c0.6-0.6,1.5-0.6,2,0c0.6,0.6,0.6,1.5,0,2
					l-5.1,5.2C23.4,66,23.1,66.2,22.7,66.2z"/>
			</g>
			<g>
				<path class="st1" d="M59.1,29.7c-0.4,0-0.7-0.1-1-0.4c-0.6-0.6-0.6-1.5,0-2l2.5-2.5c0.6-0.6,1.5-0.6,2,0c0.6,0.6,0.6,1.5,0,2
					l-2.5,2.5C59.9,29.6,59.5,29.7,59.1,29.7z"/>
			</g>
			<g>
				<path class="st1" d="M19.4,73.3c-1.4,0-2.8-0.6-3.8-1.6c-1-1-1.6-2.3-1.6-3.8c0-1.4,0.6-2.8,1.6-3.8c2-2,5.5-2,7.5,0
					c1,1,1.6,2.3,1.6,3.8c0,1.4-0.6,2.8-1.6,3.8C22.2,72.8,20.9,73.3,19.4,73.3z M19.4,65.5c-0.7,0-1.3,0.3-1.7,0.7
					C17.2,66.7,17,67.3,17,68c0,0.7,0.3,1.3,0.7,1.7c0.9,0.9,2.5,0.9,3.5,0c0.5-0.5,0.7-1.1,0.7-1.7c0-0.7-0.3-1.3-0.7-1.7
					C20.7,65.8,20.1,65.5,19.4,65.5z"/>
			</g>
			<g>
				<g>
					<path class="st1" d="M66.4,28.6c-2,0-3.9-0.8-5.3-2.2c-2.9-2.9-2.9-7.7,0-10.7c1.4-1.4,3.3-2.2,5.3-2.2c2,0,3.9,0.8,5.3,2.2
						c2.9,2.9,2.9,7.7,0,10.7C70.3,27.8,68.4,28.6,66.4,28.6z M66.4,16.4c-1.3,0-2.4,0.5-3.3,1.4c-1.8,1.8-1.8,4.8,0,6.6
						c1.8,1.8,4.9,1.8,6.6,0c1.8-1.8,1.8-4.8,0-6.6C68.8,16.9,67.6,16.4,66.4,16.4z"/>
				</g>
			</g>
			<g>
				<path class="st1" d="M43.6,17c-2.9,0-5.3-2.4-5.3-5.3c0-2.9,2.4-5.3,5.3-5.3c2.9,0,5.3,2.4,5.3,5.3C48.9,14.6,46.5,17,43.6,17z
					 M43.6,9.2c-1.4,0-2.5,1.1-2.5,2.5s1.1,2.5,2.5,2.5c1.4,0,2.5-1.1,2.5-2.5S44.9,9.2,43.6,9.2z"/>
			</g>
			<g>
				<g>
					<path class="st1" d="M43.6,84.6c-2,0-3.9-0.8-5.3-2.2c-2.9-2.9-2.9-7.7,0-10.7c1.4-1.4,3.3-2.2,5.3-2.2c2,0,3.9,0.8,5.3,2.2
						c2.9,2.9,2.9,7.7,0,10.7C47.5,83.8,45.6,84.6,43.6,84.6z M43.6,72.4c-1.3,0-2.4,0.5-3.3,1.4c-1.8,1.8-1.8,4.8,0,6.6
						c1.8,1.8,4.9,1.8,6.6,0c1.8-1.8,1.8-4.8,0-6.6C46,72.9,44.8,72.4,43.6,72.4z"/>
				</g>
			</g>
			<g>
				<path class="st1" d="M64.6,66.3c-0.4,0-0.7-0.1-1-0.4L58,60.5c-0.6-0.6-0.6-1.5,0-2c0.6-0.6,1.5-0.6,2,0l5.6,5.4
					c0.6,0.6,0.6,1.5,0,2C65.3,66.2,65,66.3,64.6,66.3z"/>
			</g>
			<g>
				<path class="st1" d="M28,29.7c-0.4,0-0.7-0.1-1-0.4l-2.4-2.4c-0.6-0.6-0.6-1.5,0-2c0.6-0.6,1.5-0.6,2,0l2.4,2.4
					c0.6,0.6,0.6,1.5,0,2C28.7,29.6,28.4,29.7,28,29.7z"/>
			</g>
			<g>
				<path class="st1" d="M67.7,73.3c-1.4,0-2.8-0.6-3.8-1.6c-1-1-1.6-2.3-1.6-3.8c0-1.4,0.6-2.8,1.6-3.8c2-2,5.5-2,7.5,0
					c1,1,1.6,2.3,1.6,3.8c0,1.4-0.6,2.8-1.6,3.8C70.5,72.8,69.2,73.3,67.7,73.3z M67.7,65.5c-0.7,0-1.3,0.3-1.7,0.7
					c-0.5,0.5-0.7,1.1-0.7,1.7c0,0.7,0.3,1.3,0.7,1.7c0.9,0.9,2.5,0.9,3.5,0c0.5-0.5,0.7-1.1,0.7-1.7c0-0.7-0.3-1.3-0.7-1.7
					C69,65.8,68.4,65.5,67.7,65.5z"/>
			</g>
			<g>
				<g>
					<path class="st1" d="M20.8,28.6c-2,0-3.9-0.8-5.3-2.2c-2.9-2.9-2.9-7.7,0-10.7c1.4-1.4,3.3-2.2,5.3-2.2c2,0,3.9,0.8,5.3,2.2
						c2.9,2.9,2.9,7.7,0,10.7C24.7,27.8,22.8,28.6,20.8,28.6z M20.8,16.4c-1.3,0-2.4,0.5-3.3,1.4c-1.8,1.8-1.8,4.8,0,6.6
						c1.8,1.8,4.9,1.8,6.6,0c1.8-1.8,1.8-4.8,0-6.6C23.2,16.9,22,16.4,20.8,16.4z"/>
				</g>
			</g>
		</g>
	</g>
</g>
</svg>
