<?xml version="1.0" encoding="utf-8"?>
<!-- Generator: Adobe Illustrator 22.1.0, SVG Export Plug-In . SVG Version: 6.00 Build 0)  -->
<svg version="1.1" id="Layer_1" xmlns="http://www.w3.org/2000/svg" xmlns:xlink="http://www.w3.org/1999/xlink" x="0px" y="0px"
	 viewBox="0 0 90.1 108.3" style="enable-background:new 0 0 90.1 108.3;" xml:space="preserve">
<style type="text/css">
	.st0{fill:#564B4D;}
	.st1{fill:#CFC8CA;}
	.st2{fill:#FFFFFF;}
	.st3{clip-path:url(#SVGID_2_);}
	.st4{fill-rule:evenodd;clip-rule:evenodd;fill:#564B4D;}
	.st5{fill-rule:evenodd;clip-rule:evenodd;fill:#CFC8CA;}
</style>
<g>
	<g>
		<path class="st0" d="M49.2,46.5l37.4-0.9l-1.1,2c-1.8,2.6-4,4.9-6.6,6.8l-2,3.8v22.1l-5.6,1.8H56.6c-0.4,0-0.8,0.2-1,0.4l-1.5,1.5
			l-15,13.1h-6l-8.8-12v-72L49.2,46.5z"/>
	</g>
	<g>
		<path class="st1" d="M73.4,55.3c0-8.9-7.2-16.1-16.1-16.1c-5.7,0-10.6,2.9-13.5,7.3c-1.3,2,2.5,4.8,5.3,4.8
			c8.9,0,16.1,7.2,16.1,16.1c0,0.7,0,1.3-0.1,1.9C70.1,66.5,73.4,61.3,73.4,55.3z"/>
	</g>
	<g>
		<path class="st1" d="M74.7,52.4c-1,0.2-2.1,0.3-3.2,0.3c-1.6,0-3.1-0.2-4.6-0.6c-2.1-0.6-4-1.6-5.7-2.9c-1.4-1.1-2.6-2.4-3.5-3.8
			l-16.4-0.9c-3.8,0-6.8-3-6.8-6.8c0-0.3,0-0.7,0.1-1C33.2,37.5,31.7,38,30,38c-4.6,0-8.4-3.7-8.4-8.4c0-4,2.7-7.3,6.4-8.1
			c-2.6-1.9-4.3-5-4.3-8.5c0-5.8,4.7-10.4,10.4-10.4c0.1,0,0.2,0,0.3,0L69,3.5c4.3,0.1,7.7,3.4,8.1,7.6c0.4-0.1,0.9-0.1,1.3-0.1
			c4.6,0,8.4,3.7,8.4,8.4c0,0.4,0,0.9-0.1,1.3c2.1,1.5,3.4,4,3.4,6.8c0,2.1-0.7,3.9-2,5.4c0.8,1.4,1.2,3.1,1.2,4.8
			c0,3.6-1.8,6.8-4.7,8.7L74.7,52.4z"/>
	</g>
	<g>
		<path class="st2" d="M47.8,35.6H35.1v-2.9h12.6c0.8,0,1.4,0.6,1.4,1.4v0C49.2,34.9,48.6,35.6,47.8,35.6z"/>
	</g>
	<g>
		<path class="st2" d="M67,35h12.6v2.9H67c-0.8,0-1.4-0.6-1.4-1.4v0C65.6,35.6,66.2,35,67,35z"/>
	</g>
	<g>
		<path class="st2" d="M63.2,22.7H70v2.9h-6.8c-0.8,0-1.4-0.6-1.4-1.4v0C61.8,23.4,62.4,22.7,63.2,22.7z"/>
	</g>
	<g>
		<defs>
			<path id="SVGID_1_" d="M74.7,52.4c-1,0.2-2.1,0.3-3.2,0.3c-1.6,0-3.1-0.2-4.6-0.6c-2.1-0.6-4-1.6-5.7-2.9
				c-1.4-1.1-2.6-2.4-3.5-3.8l-16.4-0.9c-3.8,0-6.8-3-6.8-6.8c0-0.3,0-0.7,0.1-1C33.2,37.5,31.7,38,30,38c-4.6,0-8.4-3.7-8.4-8.4
				c0-4,2.7-7.3,6.4-8.1c-2.6-1.9-4.3-5-4.3-8.5c0-5.8,4.7-10.4,10.4-10.4c0.1,0,0.2,0,0.3,0L69,3.5c4.3,0.1,7.7,3.4,8.1,7.6
				c0.4-0.1,0.9-0.1,1.3-0.1c4.6,0,8.4,3.7,8.4,8.4c0,0.4,0,0.9-0.1,1.3c2.1,1.5,3.4,4,3.4,6.8c0,2.1-0.7,3.9-2,5.4
				c0.8,1.4,1.2,3.1,1.2,4.8c0,3.6-1.8,6.8-4.7,8.7L74.7,52.4z"/>
		</defs>
		<clipPath id="SVGID_2_">
			<use xlink:href="#SVGID_1_"  style="overflow:visible;"/>
		</clipPath>
		<g class="st3">
			<path class="st2" d="M85.1,32.8h6.4v2.9h-6.4c-0.8,0-1.4-0.6-1.4-1.4v0C83.7,33.4,84.3,32.8,85.1,32.8z"/>
		</g>
		<g class="st3">
			<path class="st2" d="M81,17.7h8.5v2.9H81c-0.8,0-1.4-0.6-1.4-1.4v0C79.5,18.3,80.2,17.7,81,17.7z"/>
		</g>
	</g>
	<g>
		<g>
			<path class="st0" d="M56.1,48.3c1,1.2,2,2.3,3.3,3.2c2,1.6,4.3,2.7,6.7,3.4c1.7,0.5,3.6,0.7,5.4,0.7h0c1.3,0,2.5-0.1,3.7-0.4
				l-0.6-2.9c-1,0.2-2.1,0.3-3.2,0.3c0,0,0,0,0,0c-1.5,0-3.1-0.2-4.6-0.6c-2.1-0.6-4-1.6-5.7-2.9c-1.4-1.1-2.6-2.4-3.5-3.8
				L56.1,48.3z"/>
		</g>
		<g>
			<path class="st0" d="M77.8,32.7H74c-0.8,0-1.4-0.6-1.4-1.4c0-0.8,0.6-1.4,1.4-1.4h3.9c3,0,5.4-2.4,5.4-5.4c0-0.8,0.6-1.4,1.4-1.4
				c0.8,0,1.4,0.6,1.4,1.4C86,29,82.3,32.7,77.8,32.7z"/>
		</g>
		<g>
			<path class="st0" d="M56.5,45.7c-0.8,0-1.4-0.6-1.4-1.4c0-0.8,0.6-1.4,1.4-1.4c2.8,0,5.3-1.7,6.4-4.2c0.2-0.5,0.7-0.8,1.2-0.8
				l10.2,0c2.6,0,4.8-2.1,4.8-4.7v-2.4c0-0.8,0.6-1.4,1.4-1.4c0.8,0,1.4,0.6,1.4,1.4v2.4c0,4.1-3.4,7.5-7.5,7.5l-9.4,0
				C63.3,43.7,60.1,45.7,56.5,45.7z"/>
		</g>
		<g>
			<path class="st0" d="M28.3,18.6c-0.8,0-1.4-0.6-1.4-1.4c0-6.5,5.3-11.8,11.8-11.8c0.8,0,1.4,0.6,1.4,1.4s-0.6,1.4-1.4,1.4
				c-5,0-9.1,4.1-9.1,9.1C29.7,18,29.1,18.6,28.3,18.6z"/>
		</g>
		<g>
			<path class="st0" d="M63.4,30.3H51.7c-0.8,0-1.4-0.6-1.4-1.4c0-0.8,0.6-1.4,1.4-1.4h11.7c2.4,0,4.5-1.6,5.2-3.9
				c0.2-0.5,0.6-0.9,1.2-1c2.5-0.2,4.5-2.3,4.5-4.9c0-2.6-2-4.7-4.6-4.9c-0.4,0-0.8-0.2-1-0.6c-0.9-1.3-2.4-2.1-4-2.1
				c-0.8,0-1.4-0.6-1.4-1.4c0-0.8,0.6-1.4,1.4-1.4c2.3,0,4.4,1,5.9,2.8c3.7,0.6,6.5,3.8,6.5,7.5c0,3.7-2.6,6.8-6.2,7.5
				C69.6,28.3,66.6,30.3,63.4,30.3z"/>
		</g>
		<g>
			<path class="st0" d="M38.2,32.6c-0.6,0-1.1-0.4-1.3-1c-0.2-0.7-0.3-1.5-0.3-2.3c0-4.3,3.5-7.9,7.9-7.9l4.4,0
				c1.4-3.1,4.5-5.2,8-5.2h7.5c0.8,0,1.4,0.6,1.4,1.4S65.1,19,64.4,19h-7.5c-2.6,0-5,1.7-5.7,4.2c-0.2,0.6-0.7,1-1.3,1c0,0,0,0,0,0
				l-5.4,0c-2.8,0-5.2,2.3-5.2,5.2c0,0.5,0.1,1,0.2,1.5c0.2,0.7-0.2,1.5-0.9,1.7C38.5,32.6,38.4,32.6,38.2,32.6z"/>
		</g>
		<g>
			<path class="st0" d="M40.4,45.9c-4.5,0-8.2-3.7-8.2-8.2c0-0.4,0-0.8,0.1-1.2c0.5-3,2.6-5.5,5.5-6.5c0.1,0,0.3-0.1,0.4-0.1h4.7
				c0.8,0,1.4,0.6,1.4,1.4c0,0.8-0.6,1.4-1.4,1.4h-4.5c-1.8,0.7-3.2,2.3-3.5,4.3c0,0.3-0.1,0.5-0.1,0.8c0,3,2.4,5.4,5.4,5.4
				c0.8,0,1.4,0.6,1.4,1.4C41.8,45.3,41.1,45.9,40.4,45.9z"/>
		</g>
	</g>
	<g>
		<path class="st2" d="M78.5,85.6h-3.3c-0.4,0-0.8-0.2-1-0.4L61.6,72.5c-0.3-0.3-0.4-0.6-0.4-1v-8.4c0-0.8,0.7-1.5,1.5-1.5l9.6,0
			c0.8,0,1.5,0.7,1.5,1.5v13.5c0,0.4,0.2,0.8,0.4,1l5.4,5.4C80.5,84,79.8,85.6,78.5,85.6z M87.9,43.4l-7.3,0l-10.2,0
			c-0.8,0-1.5,0.7-1.5,1.5l0,2.1c0,0.9,0.4,1.8,1,2.5l2.3,2.3c0.3,0.3,0.4,0.6,0.4,1l0,5.2c0,1.1,1.1,1.8,2.1,1.3
			c1.2-0.6,2.4-1.2,3.5-1.9c0.4-0.3,0.7-0.7,0.7-1.2l0-4.2c0-0.4,0.2-0.8,0.4-1l2.9-2.9c0.3-0.3,0.6-0.4,1-0.4l3.9,0
			c0.5,0,1-0.3,1.3-0.7c0.3-0.4,0.5-0.9,0.7-1.3C89.7,44.6,89,43.4,87.9,43.4z M56.2,63.7H51c-0.4,0-0.8,0.2-1,0.4l-4.4,4.4
			c-0.3,0.3-0.4,0.6-0.4,1v7.1c0,0.4-0.2,0.8-0.4,1l-4,4c-0.5,0.5-0.8,1.1-0.8,1.8l0,0c0,2.3,2.8,3.5,4.4,1.8l12.9-12.9
			c0.3-0.3,0.4-0.6,0.4-1v-6.3C57.7,64.4,57.1,63.7,56.2,63.7z M54,84.1L54,84.1c-1-1-2.7-1-3.7,0l-7.3,7.3
			c-0.1,0.1-0.2,0.2-0.3,0.2L31,98.5c-0.3,0.2-0.5,0.5-0.6,0.8l-2.5,7.1c-0.4,1.3,0.9,2.4,2.1,1.8l3.7-2.1c0.3-0.2,0.5-0.5,0.6-0.8
			l1-2.8c0.1-0.3,0.3-0.6,0.6-0.8l10.1-5.8c0.1-0.1,0.2-0.1,0.3-0.2l7.7-7.7C55.1,86.8,55.1,85.2,54,84.1z M39.4,0
			c-1.9,0-3.7,0.2-5.5,0.5c-1.2,0.2-1.6,1.6-0.8,2.5l5.3,5.3c0.6,0.6,0.6,1.5,0,2.1L34,14.7c-0.6,0.6-0.6,1.5,0,2.1l5,5
			c0.3,0.3,0.6,0.4,1,0.4h13.6c0.5,0,1-0.2,1.4-0.6L68.9,10c0.6-0.6,0.6-1.5,0-2.1l-7.3-7.5C61.4,0.2,61,0,60.6,0H39.4z M49.2,37.6
			c-5,0-9,4-9,9s4,9,9,9s9-4,9-9S54.2,37.6,49.2,37.6z"/>
	</g>
	<g>
		<path class="st0" d="M50.6,52.7c2.8-0.6,4.9-3.1,4.9-6.1c0-3.5-2.8-6.3-6.3-6.3c-3.5,0-6.3,2.8-6.3,6.3c0,3,2.1,5.5,4.9,6.1l0-2
			c0-0.8,0.6-1.4,1.4-1.4l0,0c0.8,0,1.4,0.6,1.4,1.4L50.6,52.7z"/>
	</g>
	<g>
		<path class="st2" d="M6.1,40c0.1,0.5,0.2,1,0.2,1.6c0,0.8-0.1,1.6-0.4,2.4L0.8,59l-0.6,1.8C0,61.2,0,61.6,0,62
			c0.1,1.7,1.5,3,3.2,3h2.3c0.1,0,0.3,0,0.4,0.1c0.2,0.1,0.4,0.2,0.5,0.4c0.1,0.1,0.2,0.3,0.2,0.5l2.8,16.7c0.6,3.4,3.4,6,7,6.3
			c1.8,0.1,3.5-0.4,4.9-1.4l17.4-12.7c1.9-1.4,3.1-3.6,3.1-6.1c0-2.1-0.8-4-2.2-5.3L33.3,57c-0.3-0.3-0.4-0.6-0.4-1l0-2.9
			c0-0.4,0.2-0.8,0.4-1l3.6-3.6c0.3-0.3,0.4-0.6,0.4-1v-1.7c0-0.4-0.2-0.8-0.4-1l-3.6-3.6c-0.3-0.3-0.4-0.6-0.4-1v-5.1
			c0-0.4,0.2-0.8,0.4-1l3.6-3.6c0.3-0.3,0.4-0.6,0.4-1v-4.6c0-0.4-0.2-0.8-0.4-1L25.6,12.6c-0.6-0.6-0.6-1.5,0-2.1L30,6.1
			c0.6-0.6,0.6-1.5,0-2.1l-2.2-2.2c-0.4-0.4-1-0.5-1.5-0.4c-0.9,0.3-1.7,0.6-2.6,1c-4.5,1.9-8.4,4.9-11.6,8.6
			c-3.2,3.8-5.4,8.2-6.5,13C4.5,29.3,4.6,34.6,6,39.5L6.1,40z"/>
	</g>
	<g>
		<circle class="st4" cx="14.5" cy="42.7" r="3.1"/>
	</g>
	<g>
		<path class="st5" d="M16.6,41.7c0,0.6-0.5,1-1,1c-0.6,0-1-0.5-1-1c0-0.6,0.5-1,1-1C16.1,40.7,16.6,41.1,16.6,41.7z"/>
	</g>
	<g>
		<g>
			<circle class="st2" cx="49.2" cy="46.6" r="4"/>
		</g>
		<g>
			<path class="st1" d="M53.1,5.6h-9c-0.4,0-0.7-0.3-0.7-0.7v0c0-0.4,0.3-0.7,0.7-0.7h9c0.4,0,0.7,0.3,0.7,0.7v0
				C53.8,5.3,53.5,5.6,53.1,5.6z"/>
		</g>
		<g>
			<path class="st1" d="M59.4,9.2H44.1c-0.4,0-0.7-0.3-0.7-0.7l0,0c0-0.4,0.3-0.7,0.7-0.7h15.3c0.4,0,0.7,0.3,0.7,0.7l0,0
				C60.1,8.9,59.8,9.2,59.4,9.2z"/>
		</g>
	</g>
</g>
</svg>
